<?xml version="1.0" encoding="UTF-8"?>
<svg id="_Слой_1" data-name="Слой_1" xmlns="http://www.w3.org/2000/svg" version="1.1" viewBox="0 0 841.89 595.28">
  <!-- Generator: Adobe Illustrator 29.0.1, SVG Export Plug-In . SVG Version: 2.1.0 Build 192)  -->
  <defs>
    <style>
      .st0 {
        fill: #fcc450;
      }

      .st1 {
        stroke-width: 2.59px;
      }

      .st1, .st2, .st3, .st4, .st5, .st6, .st7, .st8 {
        stroke: #284a9a;
        stroke-miterlimit: 10;
      }

      .st1, .st2, .st3, .st4, .st5, .st7, .st8 {
        fill: none;
      }

      .st2 {
        stroke-width: .52px;
      }

      .st9 {
        font-family: AcherusFeral-Bold, 'Acherus Feral';
        font-size: 72px;
        font-weight: 700;
      }

      .st6 {
        fill: #284a9a;
      }

      .st3 {
        stroke-width: 4.14px;
      }

      .st4 {
        stroke-width: 3.11px;
      }

      .st5 {
        stroke-width: 6.73px;
      }

      .st6 {
        stroke-width: 2.07px;
      }

      .st7 {
        stroke-width: 4.66px;
      }

      .st8 {
        stroke-width: 5.18px;
      }
    </style>
  </defs>
  <path class="st1" d="M306.78,336.38"/>
  <path class="st2" d="M273.55,354.9"/>
  <polyline class="st0" points="163.76 275.3 238.03 275.3 223.81 301.37 151.2 301.37 163.76 275.3"/>
  <polyline class="st0" points="168.6 265.09 191.68 264.72 205.67 187.94 168.6 265.09"/>
  <polyline class="st0" points="186.36 315.69 210.57 318.28 155.71 389.78 186.36 315.69"/>
  <circle class="st5" cx="177.09" cy="286.9" r="103.38"/>
  <path class="st8" d="M159.41,262.56l40.39-74.98-16.95,74.98h-51.09l-10.3-5.78-31.38.59v7.83h18.48l.15,6.63,4.45,6.02,10.94,4.55,8.25-4.71h94.16l-15.07,24.76h-72.61l12.56-24.62c.07-.15.06-.26.06-.26"/>
  <path class="st8" d="M212.03,302.44l16.92.12,8.59-5.34h13.12v25.93h-12.7l-9.38-5.72-27.29-.17-24.16-.15-27.13,78.61,51.45-77.71c.45-.91.52-.63.52-.63"/>
  <line class="st3" x1="238.03" y1="297.87" x2="237.97" y2="323.14"/>
  <line class="st7" x1="251.49" y1="303.27" x2="264.8" y2="303.27"/>
  <line class="st7" x1="251.49" y1="316.94" x2="265.2" y2="317.09"/>
  <polygon class="st4" points="102.9 275.3 105.85 280 89.3 280.34 89.48 277.25 102.9 275.3"/>
  <path class="st1" d="M149.99,241.98"/>
  <path class="st2" d="M116.76,266.6"/>
  <ellipse class="st6" cx="121.67" cy="268.25" rx="2.02" ry="2.27"/>
  <text class="st9" transform="translate(296.42 318.67)"><tspan x="0" y="0">СтройЛайт</tspan></text>
</svg>
