<?xml version="1.0" encoding="UTF-8"?>
<svg id="_Слой_1" data-name="Слой_1" xmlns="http://www.w3.org/2000/svg" version="1.1" viewBox="240 70 360 470">
  <!-- Generator: Adobe Illustrator 29.0.1, SVG Export Plug-In . SVG Version: 2.1.0 Build 192)  -->
  <defs>
    <style>
      .st0 {
        fill: #fcc450;
      }

      .st1 {
        stroke-width: .87px;
      }

      .st1, .st2, .st3, .st4, .st5, .st6, .st7, .st8 {
        stroke: white;
        stroke-miterlimit: 10;
      }

      .st1, .st2, .st3, .st4, .st5, .st7, .st8 {
        fill: none;
      }

      .st2 {
        stroke-width: 11.28px;
      }

      .st3 {
        stroke-width: 8.67px;
      }

      .st4 {
        stroke-width: 6.94px;
      }

      .st5 {
        stroke-width: 4.34px;
      }

      .st6 {
        fill: #284a9a;
        stroke-width: 3.47px;
      }

      .st7 {
        stroke-width: 7.8px;
      }

      .st8 {
        stroke-width: 5.2px;
      }
    </style>
  </defs>
  <path class="st1" d="M582.5,401.52"/>
  <polyline class="st0" points="398.61 268.19 523.02 268.19 499.19 311.85 377.57 311.85 398.61 268.19"/>
  <polyline class="st0" points="406.72 251.08 445.38 250.45 468.8 121.86 406.72 251.08"/>
  <polyline class="st0" points="436.47 335.85 477.01 340.17 385.13 459.95 436.47 335.85"/>
  <circle class="st2" cx="420.94" cy="287.61" r="173.17"/>
  <path class="st3" d="M391.32,246.84l67.65-125.6-28.39,125.6h-85.57l-17.25-9.68-52.57.99v13.11h30.96l.25,11.1,7.45,10.08,18.32,7.61,13.83-7.89h157.72l-25.24,41.48h-121.62l21.03-41.23c.12-.24.1-.44.1-.44"/>
  <path class="st3" d="M479.47,313.64l28.34.2,14.4-8.95h21.98v43.43h-21.28l-15.71-9.59-45.7-.28-40.47-.25-45.44,131.67,86.18-130.17c.75-1.52.87-1.06.87-1.06"/>
  <line class="st4" x1="523.02" y1="306" x2="522.91" y2="348.32"/>
  <line class="st7" x1="545.57" y1="315.03" x2="567.85" y2="315.03"/>
  <line class="st7" x1="545.57" y1="337.93" x2="568.52" y2="338.18"/>
  <polygon class="st8" points="296.66 268.19 301.6 276.05 273.89 276.62 274.2 271.45 296.66 268.19"/>
  <path class="st5" d="M375.55,212.37"/>
  <path class="st1" d="M319.89,253.62"/>
  <ellipse class="st6" cx="328.11" cy="256.37" rx="3.39" ry="3.8"/>
</svg>